<svg width="12" height="12" viewBox="0 0 12 12" fill="none" xmlns="http://www.w3.org/2000/svg">
<path d="M0.857422 11.25C0.857422 11.6645 1.24078 12 1.71456 12H10.286C10.7598 12 11.1431 11.6645 11.1431 11.25V3.375H0.857422V11.25ZM6.85742 5.62499C6.85742 5.41781 7.04921 5.24999 7.28599 5.24999C7.52278 5.24999 7.71456 5.41781 7.71456 5.62499V8.99998C7.71456 9.20717 7.52278 9.37498 7.28599 9.37498C7.04921 9.37498 6.85742 9.20717 6.85742 8.99998V5.62499ZM4.28599 5.62499C4.28599 5.41781 4.47778 5.24999 4.71456 5.24999C4.95135 5.24999 5.14314 5.41781 5.14314 5.62499V8.99998C5.14314 9.20717 4.95135 9.37498 4.71456 9.37498C4.47778 9.37498 4.28599 9.20717 4.28599 8.99998V5.62499Z" fill="#959C9E"/>
<path d="M11.1429 0.749998H7.71429C7.71429 0.335811 7.3305 0 6.85714 0H5.14286C4.6695 0 4.28571 0.335811 4.28571 0.749998H0.857143C0.383357 0.749998 0 1.08543 0 1.5V2.24999C0 2.45718 0.191786 2.62499 0.428571 2.62499H11.5714C11.8082 2.62499 12 2.45718 12 2.24999V1.5C12 1.08543 11.6166 0.749998 11.1429 0.749998Z" fill="#959C9E"/>
</svg>
