<svg width="13" height="14" viewBox="0 0 13 14" fill="none" xmlns="http://www.w3.org/2000/svg">
<g id="ip">
<path id="Vector" d="M1.90221 6.99798C1.80407 6.61665 1.75311 6.22472 1.7505 5.83097C1.75311 5.43723 1.80407 5.04529 1.90221 4.66397H3.87445C3.82361 5.05096 3.79633 5.44068 3.79276 5.83097C3.79633 6.22127 3.82361 6.61099 3.87445 6.99798H5.05312C4.99548 6.61155 4.96429 6.22165 4.95976 5.83097C4.96405 5.44029 4.99525 5.05037 5.05312 4.66397H7.78391C7.84177 5.05037 7.87297 5.44029 7.87727 5.83097C7.87273 6.22165 7.84154 6.61155 7.78391 6.99798H8.96259C9.01343 6.61099 9.04071 6.22127 9.04428 5.83097C9.04071 5.44068 9.01343 5.05096 8.96259 4.66397H10.9348C11.033 5.04529 11.0839 5.43723 11.0865 5.83097C11.0839 6.22472 11.033 6.61666 10.9348 6.99798H12.1362C12.3086 6.15043 12.2904 5.27516 12.083 4.43551C11.8756 3.59585 11.4841 2.81281 10.9368 2.14304C10.3896 1.47328 9.7003 0.933552 8.91884 0.562914C8.13738 0.192276 7.28329 0 6.41839 0C5.55349 0 4.69941 0.192276 3.91795 0.562914C3.13649 0.933552 2.4472 1.47328 1.89996 2.14304C1.35272 2.81281 0.961221 3.59585 0.75379 4.43551C0.54636 5.27516 0.528188 6.15043 0.70059 6.99798H1.90221ZM10.4564 3.49697H8.73502C8.55239 2.77428 8.28197 2.07666 7.92979 1.4197C8.99418 1.78612 9.89106 2.52351 10.4564 3.49697ZM6.41852 1.1863C6.90867 1.89344 7.28474 2.67316 7.53301 3.49697H5.30403C5.5523 2.67316 5.92837 1.89344 6.41852 1.1863ZM4.90725 1.4197C4.55505 2.07665 4.28463 2.77427 4.10202 3.49697H2.38069C2.94424 2.52203 3.84175 1.78412 4.90725 1.4197Z" fill="#798188"/>
<path id="Vector_2" d="M8.02229 10.2041H6.85529V10.7876H8.02229V10.2041Z" fill="#798188"/>
<path id="Vector_3" d="M11.6689 8.16504H1.16817C0.858353 8.16504 0.561224 8.28811 0.342149 8.50719C0.123075 8.72626 0 9.02339 0 9.33321V12.8319C0 12.9853 0.0302157 13.1372 0.0889218 13.2789C0.147628 13.4207 0.233675 13.5494 0.342149 13.6579C0.450624 13.7664 0.579402 13.8524 0.721131 13.9111C0.86286 13.9698 1.01476 14.0001 1.16817 14.0001H11.6689C11.9787 14.0001 12.2758 13.877 12.4949 13.6579C12.714 13.4388 12.837 13.1417 12.837 12.8319V9.33321C12.837 9.02339 12.714 8.72626 12.4949 8.50719C12.2758 8.28811 11.9787 8.16504 11.6689 8.16504ZM4.81474 12.8362H3.93949V9.33518H4.81474V12.8362ZM8.89756 10.7877C8.89967 10.9032 8.87848 11.018 8.83524 11.1251C8.792 11.2322 8.72761 11.3296 8.64591 11.4113C8.56421 11.493 8.46688 11.5574 8.35973 11.6006C8.25259 11.6438 8.13782 11.665 8.0223 11.6629H6.8553V12.8299H5.98004V9.32891H8.0223C8.13782 9.32679 8.25259 9.34799 8.35973 9.39122C8.46688 9.43446 8.56421 9.49885 8.64591 9.58055C8.72761 9.66225 8.792 9.75958 8.83524 9.86673C8.87848 9.97388 8.89967 10.0886 8.89756 10.2042V10.7877Z" fill="#798188"/>
</g>
</svg>
