<svg width="34" height="30" viewBox="0 0 34 30" fill="none" xmlns="http://www.w3.org/2000/svg">
<path d="M29.1193 9.375C30.6895 9.375 31.9511 8.1158 31.9511 6.5625V4.6875C31.9511 3.1342 30.6895 1.875 29.1331 1.875H4.69666C3.14033 1.875 1.87867 3.1342 1.87867 4.6875V6.5625C1.87867 8.1158 3.14033 9.375 4.69666 9.375H29.1193ZM0 23.4375C0 20.8487 2.10277 18.75 4.69666 18.75H29.1331C31.727 18.75 33.8298 20.8487 33.8298 23.4375V25.3125C33.8298 27.9013 31.727 30 29.1331 30H4.69666C2.10277 30 0 27.9013 0 25.3125V23.4375ZM1.87821 10.3125C0.737699 9.45729 0 8.09587 0 6.5625V4.6875C0 2.09867 2.10277 0 4.69666 0H29.1331C31.727 0 33.8298 2.09867 33.8298 4.6875V6.5625C33.8298 8.09587 33.0921 9.45729 31.9516 10.3125C33.0921 11.1677 33.8298 12.5291 33.8298 14.0625V15.9375C33.8298 18.5263 31.727 20.625 29.1331 20.625C28.6005 20.625 28.18 20.2053 28.18 19.6875C28.18 19.1697 28.6005 18.75 29.1193 18.75C30.6895 18.75 31.9511 17.4908 31.9511 15.9375V14.0625C31.9511 12.5092 30.6895 11.25 29.1331 11.25H4.69666C3.14033 11.25 1.87867 12.5092 1.87867 14.0625V15.9375C1.87867 17.4908 3.14033 18.75 4.69666 18.75C5.21544 18.75 5.636 19.1697 5.636 19.6875C5.636 20.2053 5.21544 20.625 4.69666 20.625C2.10277 20.625 0 18.5263 0 15.9375V14.0625C0 12.5291 0.737699 11.1677 1.87821 10.3125ZM1.87867 23.4375V25.3125C1.87867 26.8658 3.14033 28.125 4.69666 28.125H29.1331C30.6895 28.125 31.9511 26.8658 31.9511 25.3125V23.4375C31.9511 21.8842 30.6895 20.625 29.1331 20.625H4.69666C3.14033 20.625 1.87867 21.8842 1.87867 23.4375ZM4.69666 7.5C4.17788 7.5 3.75733 7.08027 3.75733 6.5625C3.75733 6.04473 4.17788 5.625 4.69666 5.625H8.45399C8.97277 5.625 9.39333 6.04473 9.39333 6.5625C9.39333 7.08027 8.97277 7.5 8.45399 7.5H4.69666ZM4.69666 16.875C4.17788 16.875 3.75733 16.4553 3.75733 15.9375C3.75733 15.4197 4.17788 15 4.69666 15H8.45399C8.97277 15 9.39333 15.4197 9.39333 15.9375C9.39333 16.4553 8.97277 16.875 8.45399 16.875H4.69666ZM4.69666 26.25C4.17788 26.25 3.75733 25.8303 3.75733 25.3125C3.75733 24.7947 4.17788 24.375 4.69666 24.375H8.45399C8.97277 24.375 9.39333 24.7947 9.39333 25.3125C9.39333 25.8303 8.97277 26.25 8.45399 26.25H4.69666Z" fill="#189E9B"/>
</svg>
