<svg width="33" height="36" viewBox="0 0 33 36" fill="none" xmlns="http://www.w3.org/2000/svg">
<path d="M26 11.6C28.651 11.6 30.8 9.45097 30.8 6.8C30.8 4.14903 28.651 2 26 2C23.349 2 21.2 4.14903 21.2 6.8C21.2 9.45097 23.349 11.6 26 11.6Z" stroke="#189E9B" stroke-width="2.5" stroke-linecap="round" stroke-linejoin="round"/>
<path d="M6.8 22.8C9.45097 22.8 11.6 20.651 11.6 18C11.6 15.349 9.45097 13.2 6.8 13.2C4.14903 13.2 2 15.349 2 18C2 20.651 4.14903 22.8 6.8 22.8Z" stroke="#189E9B" stroke-width="2.5" stroke-linecap="round" stroke-linejoin="round"/>
<path d="M26 34C28.651 34 30.8 31.851 30.8 29.2C30.8 26.5491 28.651 24.4 26 24.4C23.349 24.4 21.2 26.5491 21.2 29.2C21.2 31.851 23.349 34 26 34Z" stroke="#189E9B" stroke-width="2.5" stroke-linecap="round" stroke-linejoin="round"/>
<path d="M10.944 20.416L21.872 26.784" stroke="#189E9B" stroke-width="2.5" stroke-linecap="round" stroke-linejoin="round"/>
<path d="M21.856 9.216L10.944 15.584" stroke="#189E9B" stroke-width="2.5" stroke-linecap="round" stroke-linejoin="round"/>
</svg>
