<svg width="32" height="32" viewBox="0 0 32 32" fill="none" xmlns="http://www.w3.org/2000/svg">
<path d="M20.5714 13.7143H29.7143C30.3203 13.7136 30.9013 13.4726 31.3298 13.044C31.7583 12.6155 31.9993 12.0346 32 11.4286V2.28571C31.9993 1.67972 31.7583 1.09874 31.3298 0.670239C30.9013 0.241735 30.3203 0.000695696 29.7143 0H20.5714C19.9654 0.000695696 19.3845 0.241735 18.956 0.670239C18.5274 1.09874 18.2864 1.67972 18.2857 2.28571H8C7.394 2.28641 6.81303 2.52745 6.38452 2.95595C5.95602 3.38446 5.71498 3.96543 5.71429 4.57143V9.14286H2.28571C1.67972 9.14355 1.09874 9.38459 0.670239 9.8131C0.241735 10.2416 0.000695696 10.8226 0 11.4286V20.5714C0.000695696 21.1774 0.241735 21.7584 0.670239 22.1869C1.09874 22.6154 1.67972 22.8564 2.28571 22.8571H4.57143V27.4286C4.57212 28.0346 4.81316 28.6155 5.24167 29.044C5.67017 29.4726 6.25115 29.7136 6.85714 29.7143H18.2857C18.2864 30.3203 18.5274 30.9013 18.956 31.3298C19.3845 31.7583 19.9654 31.9993 20.5714 32H29.7143C30.3203 31.9993 30.9013 31.7583 31.3298 31.3298C31.7583 30.9013 31.9993 30.3203 32 29.7143V20.5714C31.9993 19.9654 31.7583 19.3845 31.3298 18.956C30.9013 18.5274 30.3203 18.2864 29.7143 18.2857H20.5714C19.9654 18.2864 19.3845 18.5274 18.956 18.956C18.5274 19.3845 18.2864 19.9654 18.2857 20.5714V27.4286H6.85714V22.8571H11.4286C12.0346 22.8564 12.6155 22.6154 13.044 22.1869C13.4726 21.7584 13.7136 21.1774 13.7143 20.5714V11.4286C13.7136 10.8226 13.4726 10.2416 13.044 9.8131C12.6155 9.38459 12.0346 9.14355 11.4286 9.14286H8V4.57143H18.2857V11.4286C18.2864 12.0346 18.5274 12.6155 18.956 13.044C19.3845 13.4726 19.9654 13.7136 20.5714 13.7143ZM20.5714 29.7143V25.1429H29.7143V29.7143H20.5714ZM29.7143 20.5714V22.8571H20.5714V20.5714H29.7143ZM2.28571 20.5714V16H11.4286V20.5714H2.28571ZM11.4291 13.7143H2.28571V11.4286H11.4286L11.4291 13.7143ZM20.5714 11.4286V6.85714H29.7143V11.4286H20.5714ZM29.7143 2.28571V4.57143H20.5714V2.28571H29.7143Z" fill="#C3CFDC"/>
</svg>
