<svg width="30" height="30" viewBox="0 0 30 30" fill="none" xmlns="http://www.w3.org/2000/svg">
<path fill-rule="evenodd" clip-rule="evenodd" d="M0 4.5C0 2.01472 2.01472 0 4.5 0C6.98527 0 9 2.01472 9 4.5C9 5.33454 8.77283 6.11601 8.37695 6.78597L11.0625 9.47153L12.0833 8.45084C13.6941 6.83991 16.3059 6.83991 17.9167 8.45084L18.9375 9.47151L21.6231 6.78597C21.2271 6.11601 21 5.33454 21 4.5C21 2.01472 23.0147 0 25.5 0C27.9853 0 30 2.01472 30 4.5C30 6.98527 27.9853 9 25.5 9C24.6654 9 23.8841 8.77283 23.214 8.37696L20.5286 11.0625L21.5492 12.0833C23.1602 13.6941 23.1602 16.3059 21.5492 17.9167L20.5286 18.9375L23.214 21.6231C23.8841 21.2271 24.6654 21 25.5 21C27.9853 21 30 23.0147 30 25.5C30 27.9853 27.9853 30 25.5 30C23.0147 30 21 27.9853 21 25.5C21 24.6654 21.2271 23.8841 21.6231 23.214L18.9375 20.5286L17.9167 21.5492C16.3059 23.1602 13.6941 23.1602 12.0833 21.5492L11.0625 20.5286L8.37695 23.214C8.77283 23.8841 9 24.6654 9 25.5C9 27.9853 6.98527 30 4.5 30C2.01472 30 0 27.9853 0 25.5C0 23.0147 2.01472 21 4.5 21C5.33453 21 6.11601 21.2271 6.78596 21.6231L9.47151 18.9375L8.45084 17.9167C6.83991 16.3059 6.83991 13.6941 8.45084 12.0833L9.47151 11.0625L6.78596 8.37696C6.11601 8.77283 5.33453 9 4.5 9C2.01472 9 0 6.98527 0 4.5ZM4.5 2.25C3.25735 2.25 2.25 3.25735 2.25 4.5C2.25 5.74264 3.25735 6.75 4.5 6.75C5.74264 6.75 6.75 5.74264 6.75 4.5C6.75 3.25735 5.74264 2.25 4.5 2.25ZM4.5 23.25C3.25735 23.25 2.25 24.2574 2.25 25.5C2.25 26.7426 3.25735 27.75 4.5 27.75C5.74264 27.75 6.75 26.7426 6.75 25.5C6.75 24.2574 5.74264 23.25 4.5 23.25ZM23.25 25.5C23.25 24.2574 24.2574 23.25 25.5 23.25C26.7426 23.25 27.75 24.2574 27.75 25.5C27.75 26.7426 26.7426 27.75 25.5 27.75C24.2574 27.75 23.25 26.7426 23.25 25.5ZM25.5 2.25C24.2574 2.25 23.25 3.25735 23.25 4.5C23.25 5.74264 24.2574 6.75 25.5 6.75C26.7426 6.75 27.75 5.74264 27.75 4.5C27.75 3.25735 26.7426 2.25 25.5 2.25ZM13.6742 10.0418C14.4065 9.30958 15.5935 9.30958 16.3258 10.0418L19.9583 13.6742C20.6904 14.4065 20.6904 15.5935 19.9583 16.3258L16.3258 19.9583C15.5935 20.6904 14.4065 20.6904 13.6742 19.9583L10.0418 16.3258C9.30958 15.5935 9.30958 14.4065 10.0418 13.6742L13.6742 10.0418Z" fill="#C3CFDC"/>
</svg>
