<svg width="21" height="20" viewBox="0 0 21 20" fill="none" xmlns="http://www.w3.org/2000/svg">
<path id="Vector" d="M19.706 4.53237L18.2866 3.1229L19.706 1.71344C19.8943 1.52521 20 1.26991 20 1.00371C20 0.737509 19.8943 0.482212 19.706 0.29398C19.5178 0.105748 19.2625 0 18.9963 0C18.7301 0 18.4748 0.105748 18.2866 0.29398L7.75057 10.83C6.717 10.1481 5.4671 9.8741 4.24307 10.0612C3.01903 10.2482 1.90801 10.883 1.12527 11.8424C0.342538 12.8019 -0.0561759 14.0178 0.00638867 15.2544C0.0689532 16.4911 0.588342 17.6605 1.46391 18.5361C2.33949 19.4117 3.5089 19.931 4.74557 19.9936C5.98223 20.0562 7.19809 19.6575 8.15756 18.8747C9.11703 18.092 9.75179 16.981 9.93884 15.7569C10.1259 14.5329 9.85193 13.283 9.17003 12.2494L14.0482 7.36129L15.4576 8.78075C15.551 8.8734 15.6618 8.9467 15.7836 8.99644C15.9054 9.04619 16.0358 9.0714 16.1674 9.07064C16.2989 9.0714 16.4293 9.04619 16.5511 8.99644C16.6729 8.9467 16.7837 8.8734 16.8771 8.78075C16.9708 8.68782 17.0452 8.57726 17.0959 8.45545C17.1467 8.33364 17.1728 8.20298 17.1728 8.07102C17.1728 7.93906 17.1467 7.80841 17.0959 7.68659C17.0452 7.56478 16.9708 7.45422 16.8771 7.36129L15.4576 6.00181L16.8771 4.58235L18.2866 6.00181C18.38 6.09446 18.4907 6.16775 18.6125 6.2175C18.7343 6.26724 18.8647 6.29246 18.9963 6.2917C19.1278 6.29246 19.2583 6.26724 19.3801 6.2175C19.5018 6.16775 19.6126 6.09446 19.706 6.00181C19.8075 5.9082 19.8885 5.79459 19.9438 5.66814C19.9992 5.54169 20.0278 5.40514 20.0278 5.26709C20.0278 5.12904 19.9992 4.99249 19.9438 4.86603C19.8885 4.73958 19.8075 4.62598 19.706 4.53237ZM5.00161 17.9972C4.40849 17.9972 3.82869 17.8214 3.33553 17.4918C2.84237 17.1623 2.458 16.694 2.23103 16.146C2.00405 15.598 1.94466 14.9951 2.06037 14.4133C2.17609 13.8316 2.4617 13.2973 2.8811 12.8779C3.3005 12.4585 3.83484 12.1729 4.41656 12.0571C4.99829 11.9414 5.60126 12.0008 6.14923 12.2278C6.6972 12.4548 7.16555 12.8392 7.49507 13.3323C7.82459 13.8255 8.00047 14.4053 8.00047 14.9984C8.00047 15.7937 7.68452 16.5565 7.12213 17.1189C6.55973 17.6813 5.79696 17.9972 5.00161 17.9972Z" fill="#A5AAB2"/>
</svg>
