<svg width="30" height="29" viewBox="0 0 30 29" fill="none" xmlns="http://www.w3.org/2000/svg">
<path d="M29.0231 20.0001L19.8276 3.4483C18.592 1.22127 16.8822 0 15 0C13.1178 0 11.408 1.22127 10.1724 3.4483L0.976901 20.0001C-0.186899 22.1122 -0.31621 24.1381 0.617704 25.7329C1.55162 27.3278 3.39071 28.2042 5.80452 28.2042H24.1955C26.6093 28.2042 28.4484 27.3278 29.3823 25.7329C30.3162 24.1381 30.1869 22.0978 29.0231 20.0001ZM13.9224 10.0575C13.9224 9.46845 14.4109 8.97994 15 8.97994C15.5891 8.97994 16.0776 9.46845 16.0776 10.0575V17.2415C16.0776 17.8306 15.5891 18.3191 15 18.3191C14.4109 18.3191 13.9224 17.8306 13.9224 17.2415V10.0575ZM16.0201 22.572C15.9483 22.6295 15.8765 22.6869 15.8046 22.7444C15.7184 22.8019 15.6322 22.845 15.546 22.8737C15.4598 22.9168 15.3736 22.9455 15.273 22.9599C15.1868 22.9743 15.0862 22.9887 15 22.9887C14.9138 22.9887 14.8132 22.9743 14.7127 22.9599C14.6265 22.9455 14.5402 22.9168 14.454 22.8737C14.3678 22.845 14.2816 22.8019 14.1954 22.7444C14.1236 22.6869 14.0517 22.6295 13.9799 22.572C13.7213 22.299 13.5632 21.9254 13.5632 21.5519C13.5632 21.1783 13.7213 20.8047 13.9799 20.5317L14.1954 20.3593C14.2816 20.3019 14.3678 20.2587 14.454 20.23C14.5402 20.1869 14.6265 20.1582 14.7127 20.1438C14.8994 20.1007 15.1006 20.1007 15.273 20.1438C15.3736 20.1582 15.4598 20.1869 15.546 20.23C15.6322 20.2587 15.7184 20.3019 15.8046 20.3593L16.0201 20.5317C16.2788 20.8047 16.4368 21.1783 16.4368 21.5519C16.4368 21.9254 16.2788 22.299 16.0201 22.572Z" fill="#FFDB76"/>
</svg>
