<svg width="20" height="20" viewBox="0 0 20 20" fill="none" xmlns="http://www.w3.org/2000/svg">
<path d="M17.2152 6.25C18.1435 6.25 18.8893 5.41053 18.8893 4.375V3.125C18.8893 2.08947 18.1435 1.25 17.2234 1.25H2.77664C1.85655 1.25 1.11066 2.08947 1.11066 3.125V4.375C1.11066 5.41053 1.85655 6.25 2.77664 6.25H17.2152ZM0 15.625C0 13.8991 1.24315 12.5 2.77664 12.5H17.2234C18.7569 12.5 20 13.8991 20 15.625V16.875C20 18.6009 18.7569 20 17.2234 20H2.77664C1.24315 20 0 18.6009 0 16.875V15.625ZM1.11039 6.875C0.436124 6.30486 0 5.39725 0 4.375V3.125C0 1.39911 1.24315 0 2.77664 0H17.2234C18.7569 0 20 1.39911 20 3.125V4.375C20 5.39725 19.5639 6.30486 18.8896 6.875C19.5639 7.44514 20 8.35275 20 9.375V10.625C20 12.3509 18.7569 13.75 17.2234 13.75C16.9085 13.75 16.6599 13.4702 16.6599 13.125C16.6599 12.7798 16.9085 12.5 17.2152 12.5C18.1435 12.5 18.8893 11.6605 18.8893 10.625V9.375C18.8893 8.33947 18.1435 7.5 17.2234 7.5H2.77664C1.85655 7.5 1.11066 8.33947 1.11066 9.375V10.625C1.11066 11.6605 1.85655 12.5 2.77664 12.5C3.08334 12.5 3.33197 12.7798 3.33197 13.125C3.33197 13.4702 3.08334 13.75 2.77664 13.75C1.24315 13.75 0 12.3509 0 10.625V9.375C0 8.35275 0.436124 7.44514 1.11039 6.875ZM1.11066 15.625V16.875C1.11066 17.9105 1.85655 18.75 2.77664 18.75H17.2234C18.1435 18.75 18.8893 17.9105 18.8893 16.875V15.625C18.8893 14.5895 18.1435 13.75 17.2234 13.75H2.77664C1.85655 13.75 1.11066 14.5895 1.11066 15.625ZM2.77664 5C2.46994 5 2.22132 4.72018 2.22132 4.375C2.22132 4.02982 2.46994 3.75 2.77664 3.75H4.99796C5.30466 3.75 5.55329 4.02982 5.55329 4.375C5.55329 4.72018 5.30466 5 4.99796 5H2.77664ZM2.77664 11.25C2.46994 11.25 2.22132 10.9702 2.22132 10.625C2.22132 10.2798 2.46994 10 2.77664 10H4.99796C5.30466 10 5.55329 10.2798 5.55329 10.625C5.55329 10.9702 5.30466 11.25 4.99796 11.25H2.77664ZM2.77664 17.5C2.46994 17.5 2.22132 17.2202 2.22132 16.875C2.22132 16.5298 2.46994 16.25 2.77664 16.25H4.99796C5.30466 16.25 5.55329 16.5298 5.55329 16.875C5.55329 17.2202 5.30466 17.5 4.99796 17.5H2.77664Z" fill="#919BA0"/>
</svg>
