<svg width="90" height="80" viewBox="0 0 90 80" fill="none" xmlns="http://www.w3.org/2000/svg">
<g id="server">
<path id="Vector" d="M60 48.5713H70V54.2856H60V48.5713Z" fill="#73B6B5"/>
<path id="Vector_2" d="M40 0V74.2857C40 75.8012 40.5268 77.2547 41.4645 78.3263C42.4021 79.398 43.6739 80 45 80H85C86.3261 80 87.5979 79.398 88.5355 78.3263C89.4732 77.2547 90 75.8012 90 74.2857V0H40ZM85 74.2857H45V40H85V74.2857ZM85 34.2857H45V22.8571H85V34.2857ZM45 17.1429V5.71429H85V17.1429H45Z" fill="#73B6B5"/>
<path id="Vector_3" d="M0 0V74.2857C0 75.8012 0.526784 77.2547 1.46447 78.3263C2.40215 79.398 3.67392 80 5 80H30C31.3261 80 32.5979 79.398 33.5355 78.3263C34.4732 77.2547 35 75.8012 35 74.2857V0H0ZM30 74.2857H5V40H30V74.2857ZM30 34.2857H5V22.8571H30V34.2857ZM5 17.1429V5.71429H30V17.1429H5Z" fill="#73B6B5"/>
</g>
</svg>
