<svg width="27" height="26" viewBox="0 0 27 26" fill="none" xmlns="http://www.w3.org/2000/svg">
<path d="M13.6583 17.4122C11.2209 17.4122 9.24262 15.434 9.24262 12.9965C9.24262 10.559 11.2209 8.58081 13.6583 8.58081C16.0958 8.58081 18.074 10.559 18.074 12.9965C18.074 15.434 16.0958 17.4122 13.6583 17.4122ZM13.6583 10.3471C12.1982 10.3471 11.0089 11.5364 11.0089 12.9965C11.0089 14.4566 12.1982 15.6459 13.6583 15.6459C15.1184 15.6459 16.3077 14.4566 16.3077 12.9965C16.3077 11.5364 15.1184 10.3471 13.6583 10.3471Z" fill="white" stroke="white" stroke-width="0.5"/>
<path d="M17.4381 24.9952C17.1909 24.9952 16.9436 24.9599 16.6963 24.901C15.9662 24.7008 15.3539 24.2416 14.9654 23.594L14.8241 23.3584C14.1293 22.1574 13.1755 22.1574 12.4808 23.3584L12.3513 23.5822C11.9627 24.2416 11.3504 24.7126 10.6203 24.901C9.87848 25.1012 9.11309 24.9952 8.46546 24.6066L6.44013 23.4409C5.72184 23.0287 5.20374 22.3576 4.98001 21.5451C4.76806 20.7326 4.87403 19.8965 5.28616 19.1783C5.62764 18.5777 5.72184 18.0361 5.52167 17.6946C5.32149 17.3531 4.81516 17.1529 4.12042 17.1529C2.40125 17.1529 1 15.7517 1 14.0325V11.9601C1 10.2409 2.40125 8.83966 4.12042 8.83966C4.81516 8.83966 5.32149 8.63948 5.52167 8.298C5.72184 7.95652 5.63942 7.41486 5.28616 6.81433C4.87403 6.09604 4.76806 5.24823 4.98001 4.44752C5.19196 3.63503 5.71007 2.96385 6.44013 2.55172L8.47723 1.38597C9.80783 0.597038 11.5623 1.05627 12.363 2.41041L12.5043 2.64592C13.1991 3.84699 14.1529 3.84699 14.8476 2.64592L14.9771 2.42219C15.7778 1.05627 17.5323 0.597038 18.8747 1.39775L20.9 2.56349C21.6183 2.97562 22.1364 3.64681 22.3602 4.45929C22.5721 5.27178 22.4661 6.10782 22.054 6.8261C21.7125 7.42664 21.6183 7.9683 21.8185 8.30978C22.0187 8.65126 22.525 8.85143 23.2198 8.85143C24.9389 8.85143 26.3402 10.2527 26.3402 11.9719V14.0443C26.3402 15.7635 24.9389 17.1647 23.2198 17.1647C22.525 17.1647 22.0187 17.3649 21.8185 17.7064C21.6183 18.0478 21.7008 18.5895 22.054 19.19C22.4661 19.9083 22.5839 20.7561 22.3602 21.5568C22.1482 22.3693 21.6301 23.0405 20.9 23.4527L18.8629 24.6184C18.4155 24.8657 17.9327 24.9952 17.4381 24.9952ZM13.6583 20.6384C14.7063 20.6384 15.6836 21.2978 16.3548 22.4635L16.4844 22.6873C16.6257 22.9345 16.8612 23.1112 17.1438 23.1818C17.4264 23.2525 17.709 23.2171 17.9445 23.0758L19.9816 21.8983C20.2877 21.7217 20.5232 21.4273 20.6174 21.0741C20.7116 20.7208 20.6645 20.3558 20.4879 20.0496C19.8167 18.8957 19.7343 17.7064 20.2524 16.7997C20.7705 15.893 21.8421 15.3749 23.1844 15.3749C23.938 15.3749 24.5386 14.7743 24.5386 14.0207V11.9483C24.5386 11.2065 23.938 10.5942 23.1844 10.5942C21.8421 10.5942 20.7705 10.0761 20.2524 9.16936C19.7343 8.26268 19.8167 7.07338 20.4879 5.91942C20.6645 5.61326 20.7116 5.24823 20.6174 4.89498C20.5232 4.54172 20.2995 4.25912 19.9934 4.07071L17.9562 2.90497C17.4499 2.59882 16.7787 2.77544 16.4726 3.29355L16.3431 3.51728C15.6719 4.68302 14.6945 5.34243 13.6465 5.34243C12.5985 5.34243 11.6212 4.68302 10.95 3.51728L10.8205 3.28178C10.5261 2.78722 9.86671 2.61059 9.36037 2.90497L7.32327 4.08249C7.01711 4.25912 6.78161 4.5535 6.68741 4.90675C6.59321 5.26001 6.64031 5.62504 6.81694 5.93119C7.48812 7.08516 7.57055 8.27445 7.05244 9.18114C6.53433 10.0878 5.46279 10.6059 4.12042 10.6059C3.36681 10.6059 2.76628 11.2065 2.76628 11.9601V14.0325C2.76628 14.7743 3.36681 15.3867 4.12042 15.3867C5.46279 15.3867 6.53433 15.9048 7.05244 16.8115C7.57055 17.7181 7.48812 18.9074 6.81694 20.0614C6.64031 20.3676 6.59321 20.7326 6.68741 21.0858C6.78161 21.4391 7.00534 21.7217 7.31149 21.9101L9.3486 23.0758C9.59588 23.2289 9.89025 23.2642 10.1611 23.1936C10.4437 23.1229 10.6792 22.9345 10.8323 22.6873L10.9618 22.4635C11.633 21.3096 12.6103 20.6384 13.6583 20.6384Z" fill="white" stroke="white" stroke-width="0.5"/>
</svg>
