<svg width="32" height="32" viewBox="0 0 32 32" fill="none" xmlns="http://www.w3.org/2000/svg">
<path d="M11.5 17.5C10.51 17.995 9.68503 18.73 9.07003 19.645C8.72503 20.17 8.72503 20.83 9.07003 21.355C9.68503 22.27 10.51 23.005 11.5 23.5" stroke="#62C9C7" stroke-width="2" stroke-linecap="round" stroke-linejoin="round"/>
<path d="M20.815 17.5C21.805 17.995 22.63 18.73 23.245 19.645C23.59 20.17 23.59 20.83 23.245 21.355C22.63 22.27 21.805 23.005 20.815 23.5" stroke="#62C9C7" stroke-width="2" stroke-linecap="round" stroke-linejoin="round"/>
<path d="M11.5 31H20.5C28 31 31 28 31 20.5V11.5C31 4 28 1 20.5 1H11.5C4 1 1 4 1 11.5V20.5C1 28 4 31 11.5 31Z" stroke="#62C9C7" stroke-width="2" stroke-linecap="round" stroke-linejoin="round"/>
<path d="M1.34497 10.015L30.175 10" stroke="#62C9C7" stroke-width="2" stroke-linecap="round" stroke-linejoin="round"/>
</svg>
