<svg width="30" height="30" viewBox="0 0 30 30" fill="none" xmlns="http://www.w3.org/2000/svg">
<path d="M15.8845 25.7143L19.0788 22.9501L17.3331 21.4287L12.3807 25.7143L17.3331 30L19.0911 28.4893L15.8845 25.7143Z" fill="#62C9C7"/>
<path d="M26.2102 25.7143L23.0159 28.4786L24.7616 30L29.7139 25.7143L24.7616 21.4287L23.0035 22.9394L26.2102 25.7143Z" fill="#62C9C7"/>
<path d="M9.90466 27.8572H2.47616V2.1432H12.3808V8.57169C12.3827 9.1395 12.6442 9.68358 13.1082 10.0851C13.5721 10.4866 14.2008 10.7129 14.857 10.7145H22.2855V17.143H24.7616V8.57169C24.7661 8.43087 24.7352 8.2909 24.671 8.16142C24.6069 8.03194 24.5111 7.91604 24.3902 7.8217L15.7236 0.321793C15.6147 0.217146 15.4807 0.134214 15.3311 0.07872C15.1815 0.0232264 15.0197 -0.00350594 14.857 0.000368271H2.47616C1.82003 0.0020078 1.19131 0.228296 0.727344 0.6298C0.263384 1.0313 0.00189457 1.57539 0 2.1432V27.8572C0.00189457 28.425 0.263384 28.9691 0.727344 29.3706C1.19131 29.7721 1.82003 29.9984 2.47616 30H9.90466V27.8572ZM14.857 2.57176L21.7902 8.57169H14.857V2.57176Z" fill="#62C9C7"/>
</svg>
