<svg width="90" height="80" viewBox="0 0 90 80" fill="none" xmlns="http://www.w3.org/2000/svg">
<path id="Vector" d="M0 8.88889C0 6.53141 0.948211 4.27049 2.63604 2.60349C4.32387 0.936505 6.61305 0 9 0H81C83.3869 0 85.6761 0.936505 87.364 2.60349C89.0518 4.27049 90 6.53141 90 8.88889V57.7778C90 60.1353 89.0518 62.3962 87.364 64.0632C85.6761 65.7302 83.3869 66.6667 81 66.6667H9C6.61305 66.6667 4.32387 65.7302 2.63604 64.0632C0.948211 62.3962 0 60.1353 0 57.7778V8.88889ZM81 8.88889H9V57.7778H81V8.88889ZM90 75.5556C90 76.7343 89.5259 77.8648 88.682 78.6983C87.8381 79.5318 86.6935 80 85.5 80H4.5C3.30653 80 2.16193 79.5318 1.31802 78.6983C0.474106 77.8648 0 76.7343 0 75.5556C0 74.3768 0.474106 73.2464 1.31802 72.4129C2.16193 71.5794 3.30653 71.1111 4.5 71.1111H85.5C86.6935 71.1111 87.8381 71.5794 88.682 72.4129C89.5259 73.2464 90 74.3768 90 75.5556Z" fill="#73B6B5"/>
</svg>
