<svg width="16" height="16" viewBox="0 0 16 16" fill="none" xmlns="http://www.w3.org/2000/svg">
<path id="Vector" d="M16 7.98489C16.0081 12.3926 12.4135 15.9969 8.0058 16C6.10209 16.0014 4.35345 15.3377 2.97929 14.2287C2.62197 13.9403 2.59526 13.4048 2.91997 13.0801L3.28342 12.7166C3.56113 12.4389 4.00448 12.4085 4.31216 12.6526C5.32458 13.456 6.60583 13.9355 7.99999 13.9355C11.2808 13.9355 13.9355 11.2803 13.9355 8.00002C13.9355 4.7192 11.2803 2.06452 7.99999 2.06452C6.42535 2.06452 4.99519 2.67642 3.93329 3.67523L5.57051 5.31246C5.89567 5.63762 5.66538 6.19356 5.20558 6.19356H0.516129C0.231064 6.19356 0 5.9625 0 5.67743V0.98797C0 0.528162 0.555935 0.297872 0.881096 0.623001L2.47374 2.21565C3.90996 0.843098 5.85651 0 7.99999 0C12.4132 0 15.9918 3.57356 16 7.98489ZM10.1641 10.5263L10.481 10.1189C10.7435 9.78137 10.6827 9.29495 10.3452 9.03247L9.03225 8.01127V4.64517C9.03225 4.21759 8.68564 3.87098 8.25806 3.87098H7.74193C7.31435 3.87098 6.96774 4.21759 6.96774 4.64517V9.02102L9.0777 10.6621C9.41522 10.9246 9.9016 10.8638 10.1641 10.5263Z" fill="#727676"/>
</svg>
