<svg width="25" height="22" viewBox="0 0 25 22" fill="none" xmlns="http://www.w3.org/2000/svg">
<path d="M21.3542 6.875C22.5056 6.875 23.4308 5.95159 23.4308 4.8125V3.4375C23.4308 2.29841 22.5056 1.375 21.3643 1.375H3.44422C2.30291 1.375 1.37769 2.29841 1.37769 3.4375V4.8125C1.37769 5.95159 2.30291 6.875 3.44422 6.875H21.3542ZM0 17.1875C0 15.289 1.54203 13.75 3.44422 13.75H21.3643C23.2665 13.75 24.8085 15.289 24.8085 17.1875V18.5625C24.8085 20.461 23.2665 22 21.3643 22H3.44422C1.54203 22 0 20.461 0 18.5625V17.1875ZM1.37735 7.5625C0.540979 6.93534 0 5.93697 0 4.8125V3.4375C0 1.53902 1.54203 0 3.44422 0H21.3643C23.2665 0 24.8085 1.53902 24.8085 3.4375V4.8125C24.8085 5.93697 24.2675 6.93534 23.4312 7.5625C24.2675 8.18966 24.8085 9.18803 24.8085 10.3125V11.6875C24.8085 13.586 23.2665 15.125 21.3643 15.125C20.9737 15.125 20.6653 14.8172 20.6653 14.4375C20.6653 14.0578 20.9737 13.75 21.3542 13.75C22.5056 13.75 23.4308 12.8266 23.4308 11.6875V10.3125C23.4308 9.17341 22.5056 8.25 21.3643 8.25H3.44422C2.30291 8.25 1.37769 9.17341 1.37769 10.3125V11.6875C1.37769 12.8266 2.30291 13.75 3.44422 13.75C3.82466 13.75 4.13306 14.0578 4.13306 14.4375C4.13306 14.8172 3.82466 15.125 3.44422 15.125C1.54203 15.125 0 13.586 0 11.6875V10.3125C0 9.18803 0.540979 8.18966 1.37735 7.5625ZM1.37769 17.1875V18.5625C1.37769 19.7016 2.30291 20.625 3.44422 20.625H21.3643C22.5056 20.625 23.4308 19.7016 23.4308 18.5625V17.1875C23.4308 16.0484 22.5056 15.125 21.3643 15.125H3.44422C2.30291 15.125 1.37769 16.0484 1.37769 17.1875ZM3.44422 5.5C3.06378 5.5 2.75538 5.1922 2.75538 4.8125C2.75538 4.4328 3.06378 4.125 3.44422 4.125H6.1996C6.58003 4.125 6.88844 4.4328 6.88844 4.8125C6.88844 5.1922 6.58003 5.5 6.1996 5.5H3.44422ZM3.44422 12.375C3.06378 12.375 2.75538 12.0672 2.75538 11.6875C2.75538 11.3078 3.06378 11 3.44422 11H6.1996C6.58003 11 6.88844 11.3078 6.88844 11.6875C6.88844 12.0672 6.58003 12.375 6.1996 12.375H3.44422ZM3.44422 19.25C3.06378 19.25 2.75538 18.9422 2.75538 18.5625C2.75538 18.1828 3.06378 17.875 3.44422 17.875H6.1996C6.58003 17.875 6.88844 18.1828 6.88844 18.5625C6.88844 18.9422 6.58003 19.25 6.1996 19.25H3.44422Z" fill="#1E8B9A"/>
</svg>
