<svg width="24" height="24" viewBox="0 0 24 24" fill="none" xmlns="http://www.w3.org/2000/svg">
<path d="M8.70002 13.1C7.97402 13.463 7.36902 14.002 6.91802 14.673C6.66502 15.058 6.66502 15.542 6.91802 15.927C7.36902 16.598 7.97402 17.137 8.70002 17.5" stroke="#1E8B9A" stroke-width="1.4" stroke-linecap="round" stroke-linejoin="round"/>
<path d="M15.531 13.1C16.257 13.463 16.862 14.002 17.313 14.673C17.566 15.058 17.566 15.542 17.313 15.927C16.862 16.598 16.257 17.137 15.531 17.5" stroke="#1E8B9A" stroke-width="1.4" stroke-linecap="round" stroke-linejoin="round"/>
<path d="M8.7 23H15.3C20.8 23 23 20.8 23 15.3V8.7C23 3.2 20.8 1 15.3 1H8.7C3.2 1 1 3.2 1 8.7V15.3C1 20.8 3.2 23 8.7 23Z" stroke="#1E8B9A" stroke-width="1.4" stroke-linecap="round" stroke-linejoin="round"/>
<path d="M1.25298 7.61098L22.395 7.59998" stroke="#1E8B9A" stroke-width="1.4" stroke-linecap="round" stroke-linejoin="round"/>
</svg>
